<?xml version="1.0" encoding="utf-8"?>
<!-- Svg Vector Icons : http://www.onlinewebfonts.com/icon -->
<!DOCTYPE svg PUBLIC "-//W3C//DTD SVG 1.1//EN" "http://www.w3.org/Graphics/SVG/1.1/DTD/svg11.dtd">
<svg version="1.1" xmlns="http://www.w3.org/2000/svg" xmlns:xlink="http://www.w3.org/1999/xlink" x="0px" y="0px" viewBox="0 0 1000 1000" enable-background="new 0 0 1000 1000" xml:space="preserve">
<metadata> Svg Vector Icons : http://www.onlinewebfonts.com/icon </metadata>
<g><g transform="translate(0.000000,511.000000) scale(0.100000,-0.100000)"><path d="M4551.6,4994.6c-1164.9-118-2207.2-610.3-3017.9-1421C-107.9,1929.9-370.7-651.5,905.5-2587c659.3-1002.2,1679.4-1735,2844.2-2044.6c392-104.7,641.4-138.1,1102.5-151.4c643.7-20,1102.5,46.8,1692.7,240.5c1378.7,454.4,2492.3,1510.1,3026.9,2871c371.9,944.3,432.1,2086.9,158.1,3080.3c-523.4,1915.4-2178.3,3338.7-4142.7,3568.1C5328.9,5005.8,4763.2,5016.9,4551.6,4994.6z M5685.2,4065.9c759.5-140.3,1423.2-463.3,1984.5-962.2c706-630.3,1158.2-1472.2,1305.2-2423.3c51.3-343,35.7-1020.1-33.4-1349.7c-461-2207.2-2561.4-3594.8-4768.6-3149.4c-385.3,77.9-913.2,287.3-1247.3,492.2C1894.4-2689.4,1224-1682.7,1030.3-480c-37.9,231.6-37.9,951,0,1180.5C1324.3,2489,2682.9,3832,4462.5,4088.1C4732,4126,5424.7,4114.9,5685.2,4065.9z"/><path d="M3159.5,457.7c-37.9-15.6-100.2-64.6-138.1-109.1c-124.7-142.6-124.7-334.1,0-476.6c129.2-147,35.6-140.3,1986.7-140.3c1721.7,0,1775.1,2.2,1859.8,44.5c135.8,69.1,189.3,162.6,189.3,334.1c0,175.9-57.9,271.7-198.2,336.3c-86.9,40.1-182.6,42.3-1862,40.1C3582.7,486.7,3213,482.2,3159.5,457.7z"/></g></g>
</svg>