<svg xmlns="http://www.w3.org/2000/svg" width="16" height="16" viewBox="0 0 16 16">
    <g fill="#2A2E31" fill-rule="nonzero">
        <path d="M8 0C3.589 0 0 3.589 0 8s3.589 8 8 8 8-3.589 8-8-3.589-8-8-8zm0 14.95A6.959 6.959 0 0 1 1.05 8 6.959 6.959 0 0 1 8 1.05 6.959 6.959 0 0 1 14.95 8 6.959 6.959 0 0 1 8 14.95z"/>
        <path d="M8 10.95a.659.659 0 1 0 0 1.317.659.659 0 0 0 0-1.317zM8 3.655a2.554 2.554 0 0 0-2.552 2.552.525.525 0 1 0 1.05 0c0-.828.673-1.502 1.502-1.502s1.502.674 1.502 1.502C9.502 7.036 8.83 7.71 8 7.71a.525.525 0 0 0-.525.524v1.828a.525.525 0 1 0 1.05 0V8.704a2.556 2.556 0 0 0 2.027-2.497A2.555 2.555 0 0 0 8 3.655z"/>
    </g>
</svg>
