<svg xmlns="http://www.w3.org/2000/svg" width="16" height="16" viewBox="0 0 16 16">
    <g fill="#2A2E31" fill-rule="nonzero">
        <path d="M8 0C3.589 0 0 3.589 0 8s3.589 8 8 8 8-3.589 8-8-3.589-8-8-8zm0 14.95A6.959 6.959 0 0 1 1.05 8 6.959 6.959 0 0 1 8 1.05 6.959 6.959 0 0 1 14.95 8 6.959 6.959 0 0 1 8 14.95z"/>
        <path d="M11.18 7.475H8.524V4.821a.525.525 0 0 0-1.05 0v2.655H4.821a.525.525 0 0 0 0 1.049h2.654v2.654a.525.525 0 0 0 1.05 0V8.525h2.654a.525.525 0 0 0 0-1.05z"/>
    </g>
</svg>
