<svg xmlns="http://www.w3.org/2000/svg" width="24" height="24" viewBox="0 0 24 24">
    <g fill="none" fill-rule="nonzero" opacity=".5">
        <path stroke="#2A2E31" stroke-width="1.5" d="M23.25 12C23.25 5.782 18.218.75 12 .75A11.243 11.243 0 0 0 .75 12c0 6.218 5.032 11.25 11.25 11.25S23.25 18.218 23.25 12z"/>
        <path fill="#2A2E31" d="M17.305 8.192a.937.937 0 0 1 0 1.326l-6.29 6.29a.938.938 0 0 1-1.326 0l-2.994-2.994a.937.937 0 1 1 1.326-1.326l2.331 2.331 5.627-5.627a.938.938 0 0 1 1.326 0z"/>
    </g>
</svg>
