<svg xmlns="http://www.w3.org/2000/svg" width="24" height="24" viewBox="0 0 24 24">
    <path fill="#697178" fill-rule="nonzero" d="M19.664 18.222l-4.177-4.192a6.334 6.334 0 0 0 1.194-3.667C16.68 6.844 13.846 4 10.34 4 6.834 4 4 6.844 4 10.363c0 3.518 2.834 6.362 6.34 6.362 1.343 0 2.611-.449 3.655-1.198l4.177 4.192c.373.375 1.045.375 1.492 0 .448-.449.448-1.048 0-1.497zm-9.324-2.994a4.847 4.847 0 0 1-4.848-4.865 4.847 4.847 0 0 1 4.848-4.866 4.847 4.847 0 0 1 4.849 4.866 4.847 4.847 0 0 1-4.849 4.865z"/>
</svg>
