<?xml version="1.0" encoding="utf-8"?>
<!-- Svg Vector Icons : http://www.onlinewebfonts.com/icon -->
<!DOCTYPE svg PUBLIC "-//W3C//DTD SVG 1.1//EN" "http://www.w3.org/Graphics/SVG/1.1/DTD/svg11.dtd">
<svg version="1.1" xmlns="http://www.w3.org/2000/svg" xmlns:xlink="http://www.w3.org/1999/xlink" x="0px" y="0px" viewBox="0 0 1000 1000" enable-background="new 0 0 1000 1000" xml:space="preserve">
<metadata> Svg Vector Icons : http://www.onlinewebfonts.com/icon </metadata>
<g><path d="M500,987.8c-130.9,0-253.9-50.7-346.5-142.8C61,752.9,10,630.4,10,500c0-130.3,51-252.9,143.5-345C246.1,62.9,369.1,12.2,500,12.2c130.9,0,253.9,50.7,346.4,142.8C939,247.1,990,369.6,990,499.9c0,130.4-51,252.9-143.6,345.1C753.9,937.1,630.9,987.8,500,987.8z M500,82.1c-112.3,0-217.8,43.5-297.1,122.4C123.7,283.5,80,388.4,80,500s43.6,216.5,122.9,295.4c79.3,79,184.8,122.4,297.1,122.4c112.2,0,217.8-43.5,297.1-122.4c79.3-78.9,123-183.8,122.9-295.4c0-111.6-43.6-216.5-122.9-295.4C717.8,125.6,612.3,82.1,500,82.1z"/><path d="M745.1,465H535V255c0-19.3-15.7-35-35-35c-19.3,0-35,15.7-35,35v210H255c-19.3,0-35,15.7-35,35c0,19.3,15.7,35,35,35h210v210c0,19.4,15.7,35,35,35c19.3,0,35-15.6,35-35V535h210c19.4,0,35-15.7,35-35C780.1,480.7,764.4,465,745.1,465z"/></g>
</svg>